<svg xmlns="http://www.w3.org/2000/svg" width="500" height="500">
  <path d="M48.359 4.743c1.065-.006 1.065-.006 2.153-.01 2.375-.01 4.75-.005 7.125 0l5.167-.014c4.729-.012 9.457-.012 14.186-.01 5.102 0 10.204-.01 15.305-.02q14.991-.023 29.982-.023 12.185-.002 24.37-.012a83280 83280 0 0 1 72.866-.025h3.767c20.148.001 40.297-.018 60.445-.046q31.035-.043 62.069-.04c11.615 0 23.23-.006 34.845-.027q14.835-.028 29.668-.009c5.044.006 10.089.007 15.133-.01q6.933-.024 13.864.004 2.502.005 5.005-.012C457.71 4.405 468.219 6.577 479 15l1.867 1.45C488.827 23.47 493.53 34.661 495 45c.293 5.533.279 11.06.267 16.598l.014 5.081c.012 4.641.012 9.282.01 13.922 0 5.01.01 10.02.02 15.031q.023 14.717.023 29.433.001 11.965.012 23.93a80361 80361 0 0 1 .024 75.267c0 19.781.019 39.563.047 59.344q.043 30.483.04 60.964c0 11.405.006 22.81.027 34.215q.029 14.565.009 29.13c-.006 4.952-.007 9.904.01 14.855q.024 6.81-.004 13.617-.005 2.453.012 4.907c.099 15.517-2.778 29.683-13.573 41.394-8.124 7.77-18.936 12.555-30.168 12.572l-2.148.012c-2.375.01-4.75.006-7.125.002l-5.16.016c-4.727.014-9.455.016-14.182.015-5.098.002-10.196.015-15.295.027-11.149.022-22.298.03-33.447.035q-10.443.006-20.888.017a66945 66945 0 0 1-69.09.041h-3.762l-3.768.001c-20.14.004-40.28.03-60.421.068q-31.024.057-62.05.058c-11.61 0-23.22.009-34.831.038q-14.832.038-29.664.017c-5.042-.008-10.085-.007-15.127.016q-6.934.03-13.867-.003-2.499-.005-4.998.016c-14.925.12-27.126-3.046-38.033-13.667C5.971 469.359 4.697 456.02 4.74 439.357l-.011-5.096c-.01-4.654-.008-9.307-.004-13.961.002-5.025-.007-10.05-.014-15.074q-.018-14.76-.012-29.517.002-11.997-.005-23.995l-.001-3.45-.004-6.94q-.014-32.54-.003-65.078c.006-19.837-.006-39.674-.025-59.511q-.03-30.566-.024-61.13.005-17.156-.014-34.31-.019-14.606-.002-29.21.011-7.448-.005-14.897-.014-6.825.007-13.651.003-2.463-.008-4.924c-.075-16.58 2.574-29.414 14.136-41.925C26.99 8.896 37.049 4.755 48.359 4.743M255 144l2 4 1-4zm17 2 2 1-.621 1.645-.816 2.168-.81 2.144c-1.588 4.306-1.724 7.147-1.315 11.73l.308 3.575L271 171c4.7-7.05 6.33-16.623 7-25zm-15 4 1 14c2.017-4.034 2.454-5.638 2-10zm-126 22c-1.892.222-3.789.406-5.687.563l-3.012.253L120 173c0 2.769.348 4.602 1.094 7.23l.615 2.193.791 2.765L125 194h24c-.65-8.16-.65-8.16-4-14a135 135 0 0 1-2.156-6.328c-.785-2.044-.785-2.044-3.844-2.672-3.094-.155-5.027.009-8 1m29 8v2h-4c.616 4.313 1.594 7.781 3 12h20l1-2-1-2h-2l-.687-2.687c-1.534-3.87-3.025-5.772-6.313-8.313-3.573-.438-6.571-.055-10 1m-63 5v3h2l2 7c5.693 1.186 9.426.663 15-1v-2h-2l.063-3.312c.122-3.632.122-3.632-1.063-6.688-5.763-.455-10.606 1.209-16 3m28 35 1 2q5.927.075 11.853.11c2.006.015 4.012.04 6.018.066l3.809.02 3.523.031c2.936.066 2.936.066 4.797-2.227-5.214-.864-10.22-1.153-15.5-1.125l-2.184-.012c-4.538.008-8.839.395-13.316 1.137m-4 12 1 2c2.714.312 5.34.513 8.063.625l2.298.117c1.88.095 3.76.177 5.639.258 1.054 3.162 1.313 5.87 1.563 9.188l.253 3.292L140 250h1c.09-1.499.09-1.499.184-3.027l.254-3.91c.08-1.288.162-2.576.246-3.903C142 236 142 236 143 235c2.859-.237 5.699-.422 8.563-.562l2.443-.131q2.997-.159 5.994-.307v-2c-13.05-1.36-25.923-.716-39 0" fill="#FCEBE8"/>
  <path d="m289.375 9.688 3.656-.05c8.054-.004 13.2.599 19.781 5.425 3.637 4.883 4.43 9.828 3.961 15.855-.78 4.904-1.712 9.047-4.773 13.082l3.25-.187c5.792-.032 11.211 1.636 16.75 3.187v2l-7 1v2l-6 2c.409 2.861.9 4.84 2.438 7.313C324.856 67.192 325.37 72.423 324 79h2c2.306 4.584 2.311 8.676 2.25 13.688l-.025 2.444c-.219 11.677-2.545 23.764-10.788 32.622L315 130l-2.187 2.125c-3.34 2.226-6.479 3.108-10.325 4.156a45 45 0 0 0-6.175 2.281c-3.425 1.486-6.713 2.483-10.313 3.438 2.782 5.118 5.921 9.837 9.316 14.57 4.447 6.418 6.649 11.674 7.684 19.43l2.805.262c9.319.947 18.493 2.426 27.695 4.176l3.324.621c6.255 1.218 12.189 2.766 18.176 4.941.94.313 1.88.626 2.848.95L364 189v4h-3v4c-4.92.976-9.632 1.183-14.625 1.188l-2.273.037c-3.85.01-6.844-.044-10.102-2.225v-2c-6.392-1.015-11.832-1.23-18 1l-2 2v3h11l1 4h-4v2l-11-1-1-3h-29l.125 9.75c.05 7.978-.317 15.451-2.125 23.25h-2a669 669 0 0 0-2 15l2.93.078c9.518.415 18.63 1.255 26.07 7.922.793 1.938.793 1.938 1.188 4 .494 2.439 1.02 4.624 1.812 7 .122 2.493.185 4.945.188 7.438l.042 3.996c-.208 3.221-.508 4.905-2.23 7.566l1.813-1.5C309 285 309 285 312 285l1-4h2l1-3c1.453-1.43 1.453-1.43 3.25-2.875 2.272-1.873 4.348-3.723 6.438-5.812 2.016-2.017 3.93-3.752 6.312-5.313h2l1-3h2l.875-1.75L341 253h2l1-9h9c.702 3.66 1.36 7.328 2 11l.578 3.285c1.443 8.977 1.634 17.658 1.422 26.715l3.953-.105c9.841-.181 18.64-.107 28.047 3.105v2l3 .125c4.967.66 8.283 3.718 12 6.875l-1 4c-4.104-.608-7.154-2.017-10.812-3.937-7.623-3.613-14.853-4.398-23.188-5.063q-3-.307-6-.625-2-.191-4-.375v5l2.063-.14c6.36-.237 12.1.374 18.25 1.89l1.99.476c4.78 1.256 8.529 3.207 12.697 5.774v2l1.684.207c3.252 1.114 4.969 3.049 7.378 5.48l2.598 2.575c2.39 2.797 3.822 5.402 5.34 8.738l1.098 1.984c5.83 10.671 7.09 25.364 4.109 37.153-.95 2.376-2.01 4.603-3.207 6.863a266 266 0 0 0-1.75 4.125L410 376h-2v3h-2l-.762 1.746c-3.013 5.484-8.59 10.597-14.238 13.254h-2v2c-13.788 5.322-27.471 7.104-42 3-2.836-1.45-2.836-1.45-5-3v-2l-1.562-.25c-4.313-1.327-8.402-3.129-10.875-7L329 385h-2v-2h-2v-3h-2c-6.489-6.99-10.677-17.483-11-27l-.312-3.937c.04-7.464 2.465-14.882 4.312-22.063h2l1-6 3-1c.733-2.015.733-2.015 1-4h2v-3h2v-2c5.394-6.156 12.55-9.871 20-13h2v-6l-3.25 1.5c-3.004 1.387-4.21 1.5-7.75 1.5v2c-.592.315-1.183.63-1.793.953-8.7 4.39-8.7 4.39-14.207 12.047h-2l-.875 2.813C318 316 318 316 316 319l-5-1v-4l2-1 1.125-3c4.913-11.811 16.238-17.783 27.5-22.437C345.665 286 345.665 286 348 286l-2-20-6 2v2c-5.412 4-5.412 4-8 4l-.805 1.762C326.523 284.51 317.662 290.994 310 297l-2.687 2.25C305 301 305 301 303 301v2c-2.25 2-4.28 3.694-7.062 4.875-2.898 1.683-4.134 4.359-5.938 7.125h-2v3l3.875.438c2.382.268 3.97.484 6.125 1.562v4l-5 1v6h-26v-2l-2.75 1c-3.25 1-3.25 1-7.25 1v2l-2.02.7c-5.079 1.797-10.127 3.676-15.105 5.738l-2.758 1.12c-2.376 1.294-2.376 1.294-2.922 4.102L234 347c6.677-1.171 12.571-3.3 18.77-5.967 3.382-1.426 5.486-2.033 9.23-2.033q.039 3.125.063 6.25l.035 3.516c-.126 4.172-.3 6.307-3.036 9.484C257 360 257 360 255 360v2c-12.988 3.888-25.957 3.341-39.375 3.188a5610 5610 0 0 0-6.89-.042q-8.368-.049-16.735-.146l-.944 3.359c-1.948 6.715-4.564 12.11-10.056 16.641-2.312.813-2.312.813-4 1v3c-6.897 5.517-14.088 8.818-22.734 10.527-2.224.248-2.224.248-3.266 1.473-11.788 1.258-26.192-.869-36-8v-2l-2.25-.812c-2.64-1.14-4.606-2.282-6.75-4.188v-2h-2c-4.202-3.746-6.629-7.862-8.348-13.16-.647-2.042-.647-2.042-2.277-4.402-4.982-8.832-3.259-24.362-.75-33.875C96.721 319.986 104.639 308.976 116 302c2.63-.997 5.196-1.756 7.934-2.395 2.265-.484 2.265-.484 4.066-2.605 4.476-1.043 8.794-1.106 13.375-1.062l3.773.027L148 296v-4c-4.127.222-8.25.483-12.375.75l-3.504.188c-6.656.45-12.138 1.432-18.217 4.23C112 298 112 298 110 298v2l-1.785.684c-3.588 2.132-5.179 5.612-7.336 9.101-2.228 2.626-3.512 2.932-6.879 3.215-1.125-3.75-1.125-3.75 0-6h2l.688-2.187c3.503-7.509 12.192-13.025 19.624-16.25 2.651-.555 4.988-.722 7.688-.563v-2c8.023-.9 15.93-1.115 24-1v-8l-2.645.124c-20.634.913-40.772.73-61.355-1.124-1.125-3.75-1.125-3.75 0-6h6v-69c5.122-2.561 6.945-3.394 12.238-3.73l3.845-.245 4.23-.213 2.187-.12c25.125-1.362 50.35-.868 75.5-.692 2.201 3.973 2.274 7.408 2.23 11.867v2.363a1198 1198 0 0 1-.042 7.645l-.02 5.262c-.076 15.299-.51 30.578-1.168 45.863l9 2v2l6 1-.125-2.375C204 269 204 269 206 267c-.276-1.94-.276-1.94-1-4-1.261-3.9-1.18-7.83-1.203-11.887l-.017-2.349q-.014-2.47-.02-4.94c-.01-2.458-.04-4.915-.072-7.373-.072-10.81 1.088-20.882 3.312-31.451q.403-2.01.802-4.021c1.159-5.775 2.522-11.324 4.503-16.87 1.197-3.631 1.942-7.364 2.695-11.109h2l.402-2.555.536-3.32.527-3.305C219 161 219 161 220 159h2l.375-2.812C223 153 223 153 225 150h2l.188-2.687c1.001-4.084 2.849-5.424 5.812-8.313 1.031-2.365 1.031-2.365 1-5-1.558-2.317-1.558-2.317-3.812-4.375-3.732-3.632-5.02-6.543-6.188-11.625-1.18.07-2.362.14-3.578.21q-2.336.085-4.672.165l-2.355.152c-2.275.059-4.187.029-6.395-.527-4.044-4.616-5.4-8.935-5.266-15.062C202 101 202 101 203.437 98.562 207.132 96.31 210.74 96.183 215 96l-.49-1.656c-1.03-4.731-.695-9.646-.697-14.469l-.038-3.305c-.032-17.999-.032-17.999 5.225-24.57h2v-5h-3c-3.005-4.632-3.857-8.886-3.629-14.32.981-4.18 2.89-5.8 6.414-8.121 7.086-3.436 14.63-5.522 22.215-7.559l3.594-.969c6.969-1.725 13.968-2.711 21.094-3.504 3.217-.37 3.217-.37 5.635-1.541 5.122-1.886 10.653-1.313 16.052-1.299M255 144l2 4 1-4zm17 2 2 1-.621 1.645-.817 2.167-.808 2.145c-1.59 4.306-1.725 7.147-1.317 11.73l.31 3.575L271 171c4.7-7.05 6.33-16.623 7-25zm-15 4 1 14c2.017-4.034 2.454-5.638 2-10zm-132 70 1 2q5.926.075 11.853.11c2.006.015 4.012.04 6.018.066l3.809.02 3.523.031c2.936.066 2.936.066 4.797-2.227-5.214-.864-10.22-1.153-15.5-1.125l-2.184-.012c-4.538.008-8.839.395-13.316 1.137m-4 12 1 2c2.714.312 5.34.513 8.063.625l2.298.117c1.88.095 3.76.177 5.639.258 1.054 3.162 1.313 5.87 1.563 9.188l.253 3.292L140 250h1c.09-1.499.09-1.499.184-3.027l.254-3.91c.08-1.288.162-2.576.246-3.903C142 236 142 236 143 235c2.859-.237 5.699-.422 8.563-.562l2.443-.131q2.997-.159 5.994-.307v-2c-13.05-1.36-25.923-.716-39 0" fill="#026733"/>
  <path d="M188 196c2.201 3.973 2.274 7.408 2.23 11.867v2.363a1198 1198 0 0 1-.042 7.645l-.02 5.262c-.076 15.299-.51 30.578-1.168 45.863l9 2v2l6 1 1 3h2v2c6.5 1.625 13.313 1.582 20 2l-1 39h9l3 1c1.394.067 2.792.085 4.188.063L246 321c2.6-6.64 3.554-12.787 4-19.875.577-7.652 1.39-14.85 4-22.125 6.389-.203 11.8.5 18 2q.185 7.153.275 14.307.038 2.433.102 4.865c.061 2.333.09 4.666.111 7l.078 2.191c.002 2.062.002 2.062-.566 5.637-2.5 2.328-2.5 2.328-5 4-.6 2.58-.6 2.58-.312 5.25l.136 2.703L267 329c-3.62 1.316-6.096 2-10 2v2l-2.02.7c-5.079 1.797-10.127 3.676-15.105 5.738l-2.758 1.12c-2.376 1.294-2.376 1.294-2.922 4.102L234 347c6.677-1.171 12.571-3.3 18.77-5.967 3.382-1.426 5.486-2.033 9.23-2.033q.039 3.125.063 6.25l.035 3.516c-.126 4.172-.3 6.307-3.036 9.484C257 360 257 360 255 360v2c-12.988 3.888-25.957 3.341-39.375 3.188a5610 5610 0 0 0-6.89-.042q-8.368-.049-16.735-.146l-.944 3.359c-1.948 6.715-4.564 12.11-10.056 16.641-2.312.813-2.312.813-4 1v3c-6.897 5.517-14.088 8.818-22.734 10.527-2.224.248-2.224.248-3.266 1.473-11.788 1.258-26.192-.869-36-8v-2l-2.25-.812c-2.64-1.14-4.606-2.282-6.75-4.188v-2h-2c-4.202-3.746-6.629-7.862-8.348-13.16-.647-2.042-.647-2.042-2.277-4.402-4.982-8.832-3.259-24.362-.75-33.875C96.721 319.986 104.639 308.976 116 302c2.63-.997 5.196-1.756 7.934-2.395 2.265-.484 2.265-.484 4.066-2.605 4.476-1.043 8.794-1.106 13.375-1.062l3.773.027L148 296v-4c-4.127.222-8.25.483-12.375.75l-3.504.188c-6.656.45-12.138 1.432-18.217 4.23C112 298 112 298 110 298v2l-1.785.684c-3.588 2.132-5.179 5.612-7.336 9.101-2.228 2.626-3.512 2.932-6.879 3.215-1.125-3.75-1.125-3.75 0-6h2l.688-2.187c3.503-7.509 12.192-13.025 19.624-16.25 2.651-.555 4.988-.722 7.688-.563v-2c8.023-.9 15.93-1.115 24-1v-8l-2.645.124c-20.634.913-40.772.73-61.355-1.124-1.125-3.75-1.125-3.75 0-6h6v-69c5.122-2.561 6.945-3.394 12.238-3.73l3.845-.245 4.23-.213 2.187-.12c25.125-1.362 50.35-.868 75.5-.692m-63 24 1 2q5.926.075 11.853.11c2.006.015 4.012.04 6.018.066l3.809.02 3.523.031c2.936.066 2.936.066 4.797-2.227-5.214-.864-10.22-1.153-15.5-1.125l-2.184-.012c-4.538.008-8.839.395-13.316 1.137m-4 12 1 2c2.714.312 5.34.513 8.063.625l2.298.117c1.88.095 3.76.177 5.639.258 1.054 3.162 1.313 5.87 1.563 9.188l.253 3.292L140 250h1c.09-1.499.09-1.499.184-3.027l.254-3.91c.08-1.288.162-2.576.246-3.903C142 236 142 236 143 235c2.859-.237 5.699-.422 8.563-.562l2.443-.131q2.997-.159 5.994-.307v-2c-13.05-1.36-25.923-.716-39 0" fill="#D70614"/>
  <path d="m289.375 9.688 3.656-.05c8.054-.004 13.2.599 19.781 5.425 3.637 4.883 4.43 9.828 3.961 15.855-.78 4.904-1.712 9.047-4.773 13.082l3.25-.187c5.792-.032 11.211 1.636 16.75 3.187v2l-7 1v2l-6 2c.409 2.861.9 4.84 2.438 7.313C324.856 67.192 325.37 72.423 324 79h2c2.306 4.584 2.311 8.676 2.25 13.688l-.025 2.444c-.219 11.677-2.545 23.764-10.788 32.622L315 130l-2.187 2.125c-3.34 2.226-6.479 3.108-10.325 4.156a45 45 0 0 0-6.175 2.281c-3.425 1.486-6.713 2.483-10.313 3.438v1h-6l.188 3.813c.015 4.836-1.079 8.984-2.458 13.593a44.6 44.6 0 0 0-1.355 6.719C276 170 276 170 275 171a236 236 0 0 0-1 7c-2.169-.506-4-1-6-2-.41-2.225-.41-2.225-.633-5.129l-.254-3.135-.238-3.298-.262-3.311q-.32-4.062-.613-8.127l3-1v-8l-8 1-1 6 3 2c.717 5.856-.948 10.614-3 16l-5-2-.168-1.912q-.379-4.263-.77-8.525l-.263-3.01-.264-2.862-.238-2.65c-.088-2.031-.088-2.031-1.297-3.041a100 100 0 0 1 0-5l-3.062.25c-4.858-.308-6.845-1.732-10.938-4.25h-3c-2.191-2.16-2.191-2.16-4.562-5.062l-2.38-2.848c-2.301-3.455-3.133-6.083-4.058-10.09l-3.578.21q-2.336.085-4.672.165l-2.355.152c-2.275.059-4.187.029-6.395-.527-4.044-4.616-5.4-8.935-5.266-15.062C202 101 202 101 203.437 98.562 207.132 96.31 210.74 96.183 215 96l-.49-1.656c-1.03-4.731-.695-9.646-.697-14.469l-.038-3.305c-.032-17.999-.032-17.999 5.225-24.57h2v-5h-3c-3.005-4.632-3.857-8.886-3.629-14.32.981-4.18 2.89-5.8 6.414-8.121 7.086-3.436 14.63-5.522 22.215-7.559l3.594-.969c6.969-1.725 13.968-2.711 21.094-3.504 3.217-.37 3.217-.37 5.635-1.541 5.122-1.886 10.653-1.313 16.052-1.299M255 144l2 4 1-4zm17 2 2 1-.621 1.645-.817 2.167-.808 2.145c-1.59 4.306-1.725 7.147-1.317 11.73l.31 3.575L271 171c4.7-7.05 6.33-16.623 7-25zm-15 4 1 14c2.017-4.034 2.454-5.638 2-10z" fill="#F2BC96"/>
  <path d="M236 135c4.688 1.823 4.688 1.823 6.875 3.063 2.966 1.308 5.922 1.567 9.125 1.937 3.377 8.78 3.141 17.713 3 27l4 1c2.188-5.197 3.69-9.252 3-15l-3-2c.875-5.875.875-5.875 2-7 2.67-.141 5.324-.042 8 0l1 8-4 1 .438 1.73c1.635 7.146 1.768 13.962 1.562 21.27l6 2-.062-3.437C274 171 274 171 275 170a133 133 0 0 0 .938-5.125c.563-3.264 1.19-6.315 2.125-9.5 1.14-4.107 1.572-8.139 1.937-12.375 2.715-.375 2.715-.375 6 0 1.878 2.023 3.151 3.687 4.563 6l1.164 1.799c1.11 1.723 2.191 3.46 3.273 5.201l1.617 2.469c3.773 5.804 5.447 10.617 6.383 17.531l2.805.262c9.319.947 18.493 2.426 27.695 4.176l3.324.621c6.255 1.218 12.189 2.766 18.176 4.941.94.313 1.88.626 2.848.95L364 189v4h-3v4c-4.92.976-9.632 1.183-14.625 1.188l-2.273.037c-3.85.01-6.844-.044-10.102-2.225v-2c-6.392-1.015-11.832-1.23-18 1l-2 2v3h11l1 4h-4v2l-11-1-1-3h-29l.125 9.75c.05 7.978-.317 15.451-2.125 23.25h-2l-1 7h-2v5l-1.937-.5c-3.221-.526-6.188-.515-9.44-.467-2.623-.033-5.164-.251-7.773-.527-5.46-.517-10.85-.636-16.33-.604l-2.846.005c-2.954.005-5.907.018-8.862.03q-3.031.008-6.064.014-7.374.017-14.748.049l-2 4c-.324-15.026-.367-29.32 3-44l.762-3.824c1.173-5.842 2.54-11.456 4.543-17.067 1.197-3.631 1.942-7.364 2.695-11.109h2l.402-2.555.536-3.32.527-3.305C219 161 219 161 220 159h2l.375-2.812C223 153 223 153 225 150h2l.188-2.687c1.008-4.11 2.713-5.51 5.812-8.313a97 97 0 0 0 3-4" fill="#026733"/>
  <path d="m289.375 9.688 3.656-.05c8.054-.004 13.2.599 19.781 5.425 3.637 4.883 4.43 9.828 3.961 15.855-.78 4.904-1.712 9.047-4.773 13.082l3.25-.187c5.792-.032 11.211 1.636 16.75 3.187v2l-7 1v2l-6 2c.409 2.861.9 4.84 2.438 7.313C324.156 65.988 325 70.627 325 76l-3-1v-2h-3c-2.187-1.875-2.187-1.875-4-4v-2l-3.375.063C308 67 308 67 306 66v-3l-1.937-.812C302 61 302 61 301 58c-1.912.2-1.912.2-3.863.402a578 578 0 0 1-32.512 2.348l-3.435.172c-6.168.235-11.294-.057-17.19-1.922l-1 14h-2l-1 8-5 1-1-2-.734 1.898-1.016 2.477-.984 2.46C229.784 89.37 228.593 89.79 226 91c-.685 2.858-.685 2.858-1 6a88 88 0 0 1-2 5h-5c-2.831-8.194-3.5-16.025-3.446-24.635.009-2.06-.02-4.119-.052-6.18-.037-7.394.415-12.886 4.498-19.185h2v-5h-3c-3.005-4.632-3.857-8.886-3.629-14.32.981-4.18 2.89-5.8 6.414-8.121 7.086-3.436 14.63-5.522 22.215-7.559l3.594-.969c6.969-1.725 13.968-2.711 21.094-3.504 3.217-.37 3.217-.37 5.635-1.541 5.122-1.886 10.653-1.313 16.052-1.299" fill="#066A35"/>
  <path d="M360 305c12.256-.519 22.422.695 32 9v2l1.75.688c6.44 3.756 11.15 12.624 13.633 19.511 2.932 13.305.284 24.655-6.531 36.004C395.875 379.72 389.199 387.118 380 389c-2.875.125-2.875.125-5 0v2c-25.723.713-25.723.713-36-8v-2l-2.437-.75L334 379c-.625-2.062-.625-2.062-1-4l-3-1c-1.387-1.707-1.387-1.707-2.687-3.812l-1.325-2.083C325 366 325 366 325 362h-2c-3.192-9.577-1.492-22.747 2-32 .964-1.688 1.96-3.358 3-5l1.25-2.437c2.408-3.526 5.448-5.9 8.75-8.563l2.5-2.25c3.033-2.123 5.943-2.803 9.5-3.75l.228 1.845c1.94 15.5 3.826 28.498 11.772 42.155.678 1.327 1.35 2.659 2 4l7-2c.25-2.416.25-2.416 0-5l-3-2v-3l-3-1c-5.098-12.006-5.266-25.162-5-38" fill="#FBEAE7"/>
  <path d="M344 244h9c.702 3.66 1.36 7.328 2 11l.578 3.285c1.443 8.977 1.634 17.658 1.422 26.715l3.953-.105c9.841-.181 18.64-.107 28.047 3.105v2l3 .125c4.967.66 8.283 3.718 12 6.875l-1 4c-4.104-.608-7.154-2.017-10.812-3.937-7.623-3.613-14.853-4.398-23.188-5.063q-3-.307-6-.625-2-.191-4-.375v5l2.063-.14c6.36-.237 12.1.374 18.25 1.89l1.99.476c4.78 1.256 8.529 3.207 12.697 5.774v2l1.684.207c3.252 1.114 4.969 3.049 7.378 5.48l2.598 2.575c2.39 2.797 3.822 5.402 5.34 8.738l1.098 1.984c5.83 10.671 7.09 25.364 4.109 37.153-.95 2.376-2.01 4.603-3.207 6.863a266 266 0 0 0-1.75 4.125L410 376h-2v3h-2l-.762 1.746c-3.013 5.484-8.59 10.597-14.238 13.254h-2v2c-13.788 5.322-27.471 7.104-42 3-2.836-1.45-2.836-1.45-5-3v-2l-1.562-.25c-4.313-1.327-8.402-3.129-10.875-7L329 385h-2v-2h-2v-3h-2c-6.489-6.99-10.677-17.483-11-27l-.312-3.937c.04-7.464 2.465-14.882 4.312-22.063h2l1-6 3-1c.733-2.015.733-2.015 1-4h2v-3h2v-2c5.394-6.156 12.55-9.871 20-13h2v-6l-3.25 1.5c-3.004 1.387-4.21 1.5-7.75 1.5v2c-.592.315-1.183.63-1.793.953-8.7 4.39-8.7 4.39-14.207 12.047h-2l-.875 2.813C318 316 318 316 316 319l-5-1v-4l2-1 1.125-3c4.913-11.811 16.238-17.783 27.5-22.437C345.665 286 345.665 286 348 286l-2-20-6 2v2c-5.412 4-5.412 4-8 4l-.805 1.762C326.523 284.51 317.662 290.994 310 297l-2.687 2.25C305 301 305 301 303 301v2c-4.47 4-4.47 4-7 4 1.875-5.75 1.875-5.75 3-8h3l-.187-2.687c.261-4.622 1.792-7.049 5.187-10.125 2-1.188 2-1.188 5-1.188l1-4h2l1-3c1.453-1.43 1.453-1.43 3.25-2.875 2.272-1.873 4.348-3.723 6.438-5.812 2.016-2.017 3.93-3.752 6.312-5.313h2l1-3h2l.875-1.75L341 253h2zm16 61c-.266 12.838-.098 25.994 5 38l3 1v3l3 2c.188 2.625.188 2.625 0 5l-7 2-.82-1.707c-1.15-2.312-1.15-2.312-2.547-4.492-7.648-12.622-9.157-27.37-10.633-41.801-8.643 2.137-14.835 6.73-20 14l-2.125 2.5c-5.706 7.608-6.053 17.255-6.062 26.438l-.003 2.26c.033 3.187.176 5.759 1.19 8.802h2l.188 2.563c.993 4.205 2.834 7.3 5.812 10.437h2l.188 1.875c.64 2.403.64 2.403 3.375 3.375L339 381v2c1.735 1.532 1.735 1.532 4 3l2.25 1.563c6.748 3.527 13.311 3.71 20.75 3.562l2.637-.027c2.12-.024 4.242-.06 6.363-.098v-2l3.188-.375c9.376-1.537 16.268-7.017 21.812-14.625a125 125 0 0 0 3.75-7l1.797-3.562c3.933-9.305 4.094-21.267.515-30.688-2.975-6.293-7.14-11.837-12.062-16.75h-2l-1-3c-8.977-7.688-19.684-8.479-31-8" fill="#250C0C"/>
  <path d="M148 305c1.682 3.669 2.24 6.494 2.195 10.52l-.02 3.095-.05 3.197-.027 3.256q-.036 3.966-.098 7.932l-1.865.621-2.451.817-2.428.808c-5.496 1.651-5.496 1.651-9.256 5.754-.454 2.28-.454 2.28-.625 4.688l-.227 2.449L133 350h2q1.52 1.48 3 3c5.883 3.486 11.562 5 18.242 6.387C159 360 159 360 161 361c1.447.15 2.899.249 4.352.316l2.578.127 2.695.12 2.719.13q3.327.16 6.656.307v2h3v2h-2v4h-2l-.687 2.188c-2.988 6.4-10.715 13.055-17.313 15.812h-3v2c-4.71 1.344-9.32 1.223-14.187 1.25l-2.752.063c-6.226.035-11.296-.963-17.061-3.313v-2l-2.164-.766c-9.91-4.313-15.217-11.576-19.594-21-4.326-11.263-2.358-22.9.758-34.234h2l.188-2.062c1.974-7.138 7.01-11.358 13-15.188l2.014-1.304c9.194-5.773 16.99-6.947 27.798-6.446" fill="#FBE9E6"/>
  <path d="M281 202q6.085-.149 12.17-.22 2.07-.03 4.138-.082a423 423 0 0 1 5.958-.089l3.618-.063c3.756.547 4.72 1.605 7.116 4.454l3 2-3 2v3c2.438-.435 3.828-.855 5.742-2.473 2.88-1.947 5.198-2.212 8.633-2.652l3.336-.445L335 207q3.002-.486 6-1c1.738 6.907 2.217 13.66 2.25 20.75l.027 2.435c-.024 4.977-.687 9.095-2.277 13.815h3c.125 6.625.125 6.625-1 10l-2 1-1.812 3.313c-1.905 3.45-3.953 5.376-7.188 7.687a439 439 0 0 0-3.187 2.75C326 270 326 270 324 270l-2 4h-2l-.687 1.75c-1.638 2.807-3.786 4.241-6.313 6.25l-1 3c-4.333 3-4.333 3-7 3l.488-1.535c.69-3.325.683-6.508.7-9.902l.042-3.934c-.217-3.423-.841-5.548-2.23-8.629l-.187-3.062c-.571-3.272-.571-3.272-4-5.188-5.64-2.902-11.433-4.136-17.688-4.875l-2.086-.262Q277.52 250.3 275 250c-.194-5.527.252-9.756 2-15h2c1.068-10.978 1.519-21.984 2-33" fill="#F9E9E5"/>
  <path d="m292.75 42.625 2.374-.023c27.644-.218 27.644-.218 36.876 4.398v2l-7 1v2l-6 2c.409 2.861.9 4.84 2.438 7.313C324.156 65.988 325 70.627 325 76l-3-1v-2h-3c-2.187-1.875-2.187-1.875-4-4v-2l-3.375.063C308 67 308 67 306 66v-3l-1.937-.812C302 61 302 61 301 58l-3.863.402a578 578 0 0 1-32.512 2.348l-3.435.172c-6.168.235-11.294-.057-17.19-1.922l-1 14h-2l-1 8-5 1-1-2-.734 1.898-1.016 2.477-.984 2.46C229.784 89.37 228.593 89.79 226 91c-.685 2.858-.685 2.858-1 6a88 88 0 0 1-2 5h-5c-2.831-8.194-3.5-16.025-3.446-24.635.009-2.06-.02-4.119-.052-6.18-.039-7.362.302-12.973 4.498-19.185l2-1 1-3c9.506-2.029 19.078-2.881 28.75-3.625l2.544-.197a553 553 0 0 1 39.456-1.553" fill="#132331"/>
  <path d="M344 244h9c.702 3.66 1.36 7.328 2 11l.578 3.285c1.443 8.977 1.634 17.658 1.422 26.715l3.953-.105c9.841-.181 18.64-.107 28.047 3.105v2l3 .125c4.967.66 8.283 3.718 12 6.875l-1 4c-4.104-.608-7.154-2.017-10.812-3.937-7.623-3.613-14.853-4.398-23.188-5.063q-3-.307-6-.625-2-.191-4-.375l.475 2.05c.606 3.406.775 6.707.92 10.165q.102 2.136.209 4.271.161 3.316.295 6.633c.405 10.02 1.317 19.46 5.101 28.881l2 1v3l4 2c.188 2.375.188 2.375 0 5-3 2-3 2-5.375 2.563C364 356 364 356 361.438 353a141 141 0 0 1-2.438-4l-2.062-3.375c-5.51-11.4-7.131-25.593-7-38.062l.013-2.506q.02-3.03.049-6.057l-3-1h2v-6l-3.25 1.5c-3.004 1.387-4.21 1.5-7.75 1.5v2c-.592.315-1.183.63-1.793.953-8.7 4.39-8.7 4.39-14.207 12.047h-2l-.875 2.813C318 316 318 316 316 319l-5-1v-4l2-1 1.125-3c4.913-11.811 16.238-17.783 27.5-22.437C345.665 286 345.665 286 348 286l-2-20-6 2v2c-5.412 4-5.412 4-8 4l-.805 1.762C326.523 284.51 317.662 290.994 310 297l-2.687 2.25C305 301 305 301 303 301v2c-4.47 4-4.47 4-7 4 1.875-5.75 1.875-5.75 3-8h3l-.187-2.687c.261-4.622 1.792-7.049 5.187-10.125 2-1.188 2-1.188 5-1.188l1-4h2l1-3c1.453-1.43 1.453-1.43 3.25-2.875 2.272-1.873 4.348-3.723 6.438-5.812 2.016-2.017 3.93-3.752 6.312-5.313h2l1-3h2l.875-1.75L341 253h2z" fill="#D8101D"/>
  <path d="m140.813 295.875 3.457-.008C147 296 147 296 148 297c.141 2.67.042 5.324 0 8l-3.367.262c-12.12 1.085-20.469 3.816-30.04 11.601C113 318 113 318 111 318l-.812 2.25c-1.136 2.63-2.458 4.494-4.188 6.75l-1 3h-2c-2.184 11.916-4.016 23.622 1 35l.96 2.492c3.47 8.095 9.28 12.742 16.79 17.106C124 386 124 386 125 388c6.958 2.392 13.706 2.234 21 2.125l3.504-.027q4.248-.036 8.496-.098v-2l1.977-.918c8.169-3.916 13.474-7.445 17.945-15.508L179 370h2v-4h2v-2l9 1c-1.96 7.84-4.601 14.72-11 20-2.312.813-2.312.813-4 1v3c-6.897 5.517-14.088 8.818-22.734 10.527-2.224.248-2.224.248-3.266 1.473-11.788 1.258-26.192-.869-36-8v-2l-2.25-.812c-2.64-1.14-4.606-2.282-6.75-4.188v-2h-2c-4.202-3.746-6.629-7.862-8.348-13.16-.647-2.042-.647-2.042-2.277-4.402-4.982-8.832-3.259-24.362-.75-33.875C96.721 319.986 104.639 308.976 116 302c2.63-.997 5.196-1.756 7.934-2.395 2.265-.484 2.265-.484 4.066-2.605 4.285-.98 8.428-1.135 12.813-1.125" fill="#240B0B"/>
  <path d="M379 408c15.684 0 15.684 0 21 5 7.59 7.972 9.516 16.742 9.375 27.5l.035 2.684c-.044 9.982-3.2 20.605-10.41 27.816-6.766 4.337-11.596 4-20 4z" fill="#0E0D0D"/>
  <path d="M341 408c21 0 21 0 26 3 2.498 3.747 2.865 6.666 2 11-2.328 4.608-5.507 8.487-8.937 12.313-2.3 2.354-2.3 2.354-1.876 4.407 1.14 3.199 2.427 6.327 3.754 9.452a3723 3723 0 0 0 3.621 8.578q.934 2.212 1.866 4.426Q369.708 466.59 372 472c-1.312 1.5-1.312 1.5-3 3h-3l-1.177-2.738q-2.159-5.014-4.322-10.024-.938-2.172-1.871-4.345-1.341-3.118-2.689-6.233l-.846-1.973c-1.193-3.066-1.193-3.066-3.095-5.687-3.487 3.758-4.509 6.065-4.61 11.176l-.097 3.506-.043 3.63-.09 3.69q-.105 4.499-.16 8.998h-6z" fill="#0B0B0A"/>
  <path d="M205 268h3v2h3l2 3c2.45.856 4.73 1.501 7.25 2.063l2.223.514c9.109 1.967 18.381 2.58 27.664 3.19C252 279 252 279 253 280a63 63 0 0 1-.387 4.375 258 258 0 0 0-1.008 11.063l-.209 2.773q-.208 2.788-.382 5.578c-.53 6.666-2.209 12.148-5.014 18.211-4.936.19-9.423-.16-14.297-1.008l-3.245-.559L226 320q-.037-7.849-.055-15.698-.008-2.672-.02-5.343a2553 2553 0 0 1-.023-7.67l-.015-2.421c0-5.64 0-5.64 1.113-7.868l-3.36.07q-2.194.029-4.39.055l-2.21.05c-3.844.036-6.786 0-10.04-2.175v-2h-2c-1.366-2.732-1.128-4.982-1-8z" fill="#18572E"/>
  <path d="M147 168v3h2l1 6 2.02-.656c6.556-1.98 13.146-3.808 19.98-2.344 3.861 2.268 7.318 4.858 8.71 9.234L181 185h2q1.003 2.468 2 4.938l1.125 2.777C187 195 187 195 187 196l-2.025.031q-10.538.165-21.077.341-3.92.065-7.84.125c-18.539.264-18.539.264-37.045 1.296-4.652.32-9.29.317-13.95.27l-2.686-.014q-3.188-.02-6.377-.049v-4h-2c-3.429-8.429-3.429-8.429-3-13 7.874-3.123 14.548-4.169 23-4l-1-7c7.698-5.192 26.188-7.208 34-2m-16 4c-1.892.222-3.789.406-5.687.563l-3.012.253L120 173c0 2.769.348 4.602 1.094 7.23l.615 2.193.791 2.764L125 194h24c-.65-8.16-.65-8.16-4-14a135 135 0 0 1-2.156-6.328c-.785-2.044-.785-2.044-3.844-2.672-3.094-.155-5.027.009-8 1m29 8v2h-4c.616 4.313 1.594 7.781 3 12h20l1-2-1-2h-2l-.687-2.687c-1.534-3.87-3.025-5.772-6.313-8.313-3.573-.438-6.571-.055-10 1m-63 5v3h2l2 7c5.693 1.186 9.426.663 15-1v-2h-2l.063-3.312c.122-3.632.122-3.632-1.063-6.688-5.763-.455-10.606 1.209-16 3" fill="#AFB3BA"/>
  <path d="M293 154c5.826 7.03 8.79 12.942 10 22l2.805.262c9.319.947 18.493 2.426 27.695 4.176l3.324.621c6.255 1.218 12.189 2.766 18.176 4.941.94.313 1.88.626 2.848.95L364 189v4h-3v4c-4.92.976-9.632 1.183-14.625 1.188l-2.273.037c-3.85.01-6.844-.044-10.102-2.225v-2c-.922-.09-.922-.09-1.863-.184l-2.45-.254c-.8-.08-1.6-.162-2.425-.246C325 193 325 193 322 192h2l-1-2c-2.31-.404-2.31-.404-5.11-.492l-3.21-.192-3.43-.191c-9.297-.61-17.566-1.569-26.25-5.125 1.08-2.27 2.026-4.03 3.688-5.937 1.557-2.025 1.557-2.025 1.25-4.688-.729-2.526-.729-2.526-3-3.687L285 169v-2l2.875-.875c3.177-.893 3.177-.893 5.125-3.125.243-2.21.243-2.21.125-4.625l-.055-2.477z" fill="#076A36"/>
  <path d="M217 281h10l-1 40-15.187 1.5-4.767.475-3.776.369-3.857.38c-7.965.643-7.965.643-10.065-1.08-1.305-1.86-2.457-3.55-3.348-5.644.688-2.937.688-2.937 2-5 1.813.125 1.813.125 4 1 1.75 3.063 1.75 3.063 3 6h4c-.431-3.018-.946-4.916-2.625-7.5C194 309 194 309 194.18 306.594c.978-3.092 2.21-4.394 4.57-6.594l2.207-2.09L203 296l2.438-2.562c3.052-2.904 6.355-5.328 9.769-7.79L217 284z" fill="#F8E5E2"/>
  <path d="M334 194v2c3.208.954 6.082 1.116 9.422 1.098l3.105-.01 3.223-.025 3.27-.014q3.99-.018 7.98-.049l1-4c2.875 6.625 2.875 6.625 4 10l2.375-.562C371 202 371 202 373 203v-4l6-1 1 4-3 1 2 1.813c2 2.187 2 2.187 2 5.187-2.375.125-2.375.125-5 0l-2-2c-2.54-.914-2.54-.914-5.5-1.625-.98-.26-1.96-.52-2.969-.79-4.579-.858-4.579-.858-13.531-.585v30h2c1.429 8.571 1.429 8.571-1 12v-3l-1.863.035-2.45.028-2.425.035C344 244 344 244 341 243c-.043-2-.04-4 0-6l1-1c.102-2.968.14-5.907.125-8.875l-.006-2.605c-.042-6.213-.343-12.35-1.119-18.52l-2.379.621c-9.013 2.311-9.013 2.311-13.558 2.816-3.655.672-5.224 2.261-8.063 4.563-2.312-.25-2.312-.25-4-1l.5-1.875c.576-2.086.576-2.086.5-4.125l-2-2 10 1v-2l3-1v-3l-3 1a65 65 0 0 1-4.187.063L314 201c-.687-1.812-.687-1.812-1-4 2.667-3.422 5.553-3.915 9.645-4.723 4.012-.472 7.73-.09 11.355 1.723" fill="#8F9EA3"/>
  <path d="M311 408h7a1160 1160 0 0 1 8.225 35.833q.456 2.139.917 4.278c1.919 8.923 3.585 17.847 4.858 26.889h-6l-.297-1.758c-1.82-9.509-6.914-14.691-13.703-21.242q-2.005-1.996-4-4l-.312 3.5c-.518 4.688-1.326 9.303-2.188 13.938l-.396 2.152c-.98 5.16-.98 5.16-2.104 7.41h-5c.592-7.775 1.92-15.301 3.469-22.937l.728-3.643a4263 4263 0 0 1 1.523-7.563q1.173-5.808 2.33-11.619l1.481-7.363.704-3.52.658-3.238.576-2.856C310 410 310 410 311 408" fill="#090908"/>
  <path d="M93 408c7 0 7 0 9.406 2.09l2.094 2.848 2.277 3.015L109 419q2.024 2.6 4.063 5.188L116 428l1-20h6v67h-6l.067-3.314c.07-4.106.072-8.21.055-12.317a259 259 0 0 1 .06-5.304c.376-12.67.376-12.67-5.877-23.295l-2.571-2.275C106 426 106 426 100 418l-1 57h-6z" fill="#0D0C0C"/>
  <path d="M360 305c12.256-.519 22.422.695 32 9v2l1.75.688c6.44 3.756 11.15 12.624 13.633 19.511 2.932 13.305.284 24.655-6.531 36.004C395.875 379.72 389.199 387.118 380 389c-2.875.125-2.875.125-5 0v2c-25.723.713-25.723.713-36-8v-2l-2.437-.75L334 379c-.625-2.062-.625-2.062-1-4l-3-1c-1.387-1.707-1.387-1.707-2.687-3.812l-1.325-2.083C325 366 325 366 325 362h-2c-3.192-9.577-1.492-22.747 2-32 .964-1.688 1.96-3.358 3-5l1.25-2.437c2.408-3.526 5.448-5.9 8.75-8.563l2.5-2.25c3.132-2.192 5.793-2.878 9.5-3.75v4l-2.68 1.238C339.314 317.486 333.258 323.55 330 332l-1.555 3.09c-2.002 4.656-2.006 9.343-2.132 14.348l-.104 2.794A636 636 0 0 0 326 359h2q1.259 2.653 2.5 5.313l1.406 2.988C333 370 333 370 333 373h2l2 5h3v2l1.754.375c2.964.825 5.453 2.23 8.148 3.688 5.336 2.384 11.163 2.238 16.91 2.5l2.678.13q3.255.158 6.51.307v-2l8-1v-2c1.54-1.262 1.54-1.262 3.625-2.687 7.542-5.534 12.824-12.174 15.375-21.313 1.252-9.023.606-17.53-3.125-25.898C399 330 399 330 399 327h-2a264 264 0 0 1-3-5l-2-1v-2l-3-1-1-2-3-1v-2l-2-.375a107 107 0 0 1-6.625-1.625c-5.055-1.298-10.182-1.637-15.375-2v6h-1z" fill="#B3B2B2"/>
  <path d="M219 52c3.162 1.003 6.13 2.063 9.125 3.5 5.028 2.236 10.471 2.71 15.875 3.5l-1 14h-2l-1 8-5 1-1-2-.734 1.898-1.016 2.477-.984 2.46C229.784 89.37 228.593 89.79 226 91c-.685 2.858-.685 2.858-1 6a88 88 0 0 1-2 5h-5c-2.831-8.194-3.5-16.025-3.446-24.635.009-2.06-.02-4.119-.052-6.18-.037-7.394.415-12.886 4.498-19.185" fill="#473B2B"/>
  <path d="M254 279c6.389-.203 11.8.5 18 2q.185 7.153.275 14.307.038 2.433.102 4.865c.061 2.333.09 4.666.111 7l.078 2.191c.003 3.82-.231 5.3-2.975 8.054-4.205 2.57-4.205 2.57-6.279 3.646-3.476 1.708-3.476 1.708-5.312 4.937-1.945.293-1.945.293-4.125.188L250 326v-2l-4-1c.753-6.525.753-6.525 2.006-8.933 1.152-2.396 1.349-4.237 1.521-6.883l.208-2.803.202-2.943c.607-7.75 1.42-15.07 4.063-22.438" fill="#F0E2DD"/>
  <path d="M385 413c6.276 0 8.778 1.841 13.188 6.125 6.578 10.435 6.416 24.608 4.12 36.438-1.868 5.753-4.035 9.395-9.308 12.437l-8 1z" fill="#F4E4E1"/>
  <path d="M199.313 278.5c3.22 1.448 6.224 2.776 9.687 3.5-.125 1.75-.125 1.75-1 4a249 249 0 0 1-6 4 349 349 0 0 0-4 5c-2.268 2.08-4.617 4.052-7 6-3.197-1.034-5.175-2.149-7.762-4.348-7.456-6.333-16.428-10.381-26.226-10.582C155 286 155 286 154 285c-.141-2.67-.042-5.324 0-8 5.186-1.729 10.692-1.43 16.125-1.625l3.633-.156c9.098-.34 17.147-.55 25.554 3.281" fill="#FBE1DF"/>
  <path d="M133 408h5c2.701 8.163 4.385 16.439 6 24.875 1.755 9.115 3.637 18.146 6 27.125l.487-2.36c5.416-26.227 5.416-26.227 7.826-37.702l.48-2.3c.68-3.228 1.37-6.447 2.207-9.638h6l-.812 4.063-.56 2.798-1.28 6.39a8435 8435 0 0 0-3.885 19.511q-1.083 5.472-2.171 10.943l-1.082 5.472q-.766 3.878-1.538 7.757l-.467 2.38c-1.091 5.458-1.091 5.458-2.205 7.686h-7c-.15-.767-.3-1.535-.456-2.325q-1.08-5.495-2.169-10.988l-.402-2.03a987 987 0 0 0-7.056-32.697c-1.448-6.315-2.46-12.495-2.917-18.96" fill="#0B0A0A"/>
  <path d="m148 305 1 5-3.516.008C135 310.206 128.086 311.533 119 317l-3 1c-1.091 1.806-1.091 1.806-2 4a568 568 0 0 1-2.625 4.75l-1.352 2.422L109 331h-2c-2.276 12.418-4.151 23.567 2 35q.799 1.962 1.563 3.938c1.223 3.293 1.223 3.293 4.437 5.062v2l2.188.75C120 379 120 379 122.25 380.938c8.775 6.58 20.052 5.948 30.5 4.746 4.607-.888 8.525-2.612 12.621-4.88C167 380 167 380 169 380v-3h2v-2h3l1-5h2l2-7h-11v-1h12v2h3v2h-2v4h-2l-.687 2.188c-2.988 6.4-10.715 13.055-17.313 15.812h-3v2c-4.71 1.344-9.32 1.223-14.187 1.25l-2.752.063c-6.226.035-11.296-.963-17.061-3.313v-2l-2.164-.766c-9.91-4.313-15.217-11.576-19.594-21-4.326-11.263-2.358-22.9.758-34.234h2l.188-2.062c1.974-7.138 7.01-11.358 13-15.188l2.014-1.304c9.194-5.773 16.99-6.947 27.798-6.446" fill="#ADACAC"/>
  <path d="M431 407c3.496 1.927 4.682 2.925 5.813 6.75L437 416c-2.312.688-2.312.688-5 1l-3-3c-3.125-.25-3.125-.25-6 0-1.885 3.77-1.575 8.02-.422 11.988 2.343 5.315 6.075 8.81 10.23 12.774 5.65 5.77 8.269 11.46 8.567 19.488-.062 5.798-1.537 9.435-5.375 13.75-3.405 3.096-5.981 4.257-10.5 4.5-4.472-.218-7.068-1.547-10.5-4.5-2.375-2.75-2.375-2.75-4-5 3-2 3-2 4.938-1.812 2.062.812 2.062.812 3.875 2.375 3.236 2.126 5.398 1.969 9.187 1.437 3.163-1.662 3.163-1.662 5-5 1.04-5.411.8-10.37-2-15.187-2.653-3.696-5.867-6.788-9.137-9.934-5.316-5.36-8.129-11.242-8.363-18.754.114-5.108.803-8.362 4.52-11.973 3.865-2.249 7.702-2.05 11.98-1.152" fill="#0B0A0A"/>
  <path d="M286 407c4.195 1.733 6.35 4.368 9 8l-3 3c-2.231-1.036-4.006-2.006-5.875-3.625-2.92-1.89-4.71-1.873-8.125-1.375-4.567 3.001-5.842 7.897-7 13-.42 4.632-.42 9.226-.375 13.875l-.035 3.645c-.02 12.656-.02 12.656 5.3 23.753 2.116 2.036 2.116 2.036 5.61 2.227 4.085-.584 4.739-1.647 7.5-4.5 2.75.25 2.75.25 5 1-.473 4.255-2.925 6.225-6 9-3.474 1.737-7.202 1.461-11 1-5.213-2.656-8.627-6.182-11.187-11.437-2.245-7.078-2.066-14.364-2.108-21.71a322 322 0 0 0-.062-4.184c-.245-11.605.985-20.578 8.99-29.392 3.676-3.434 8.65-2.687 13.367-2.277" fill="#D7101C"/>
  <path d="M227 408h21v5h-15v12h9v5h-9v39h15v6h-21z" fill="#070707"/>
  <path d="M65 408h20v5H70v12h10v5h-9v39h14v6H65z" fill="#D70F1B"/>
  <path d="M190 408h30v5h-12v62h-6v-61h-12z" fill="#0E0D0D"/>
  <path d="M350 308v4l-2.68 1.238C339.314 317.486 333.258 323.55 330 332l-1.555 3.09c-2.002 4.656-2.006 9.343-2.132 14.348l-.104 2.794A636 636 0 0 0 326 359h2q1.259 2.653 2.5 5.313l1.406 2.988C333 370 333 370 333 373h2l2 5h3v2l1.754.375c2.281.635 4.103 1.505 6.183 2.625 3.014 1.554 5.663 2.575 9.063 3v2l3.176-.035 4.137-.027 2.091-.026c3.144-.015 5.59.086 8.596 1.088v2c-25.723.713-25.723.713-36-8v-2l-2.437-.75L334 379c-.625-2.062-.625-2.062-1-4l-3-1c-1.387-1.707-1.387-1.707-2.687-3.812l-1.325-2.083C325 366 325 366 325 362h-2c-3.192-9.577-1.492-22.747 2-32 .964-1.688 1.96-3.358 3-5l1.25-2.437c2.406-3.523 5.444-5.908 8.75-8.563l2.625-2.25c2.928-2.157 5.678-3.75 9.375-3.75" fill="#A2A0A0"/>
  <path d="M127 167v1h-5v2l2 1h-7l6 24 8 1v1c-11.684.991-23.279 1.107-35 1v-4h-2c-3.429-8.429-3.429-8.429-3-13 7.874-3.123 14.548-4.169 23-4l-1-7c4.563-3.533 8.496-3.324 14-3m-30 18v3h2l2 7c5.693 1.186 9.426.663 15-1v-2h-2l.063-3.312c.122-3.632.122-3.632-1.063-6.688-5.763-.455-10.606 1.209-16 3" fill="#B2B6BC"/>
  <path d="M222 176h2l1 4h2l.688 2.375c1.688 3.377 2.844 3.315 6.312 4.625a85 85 0 0 1 3.313 2.938C247.938 199.33 265.522 200.219 279 200l1 5h-2v3a142 142 0 0 1-5 5l-1 2h-4v-3h2l2-5h2v-2l-8-1-.332 1.934-.48 2.504-.458 2.496L264 213l-3 1v-3h-2c-1.498-3.371-2-5.204-2-9l-1.828-.402-2.422-.536-2.39-.527A249 249 0 0 1 244 199c0 3.589 3.31 6.08 5.566 8.71C251 210 251 210 250.715 212.29L250 214h-2v-2h-2c-1.473-2.012-1.473-2.012-3.062-4.687l-1.598-2.637c-1.31-2.617-1.783-4.83-2.34-7.676-1.997-1.685-1.997-1.685-4-3v-2l-1.687-.187c-3.25-1.143-4.929-3.37-7.313-5.813l-2.25-.875C222 184 222 184 221.188 180.438L221 177z" fill="#005027"/>
  <path d="M177 408h6v67h-6z" fill="#131111"/>
  <path d="m296 319 2 1v4l-5 1v6h-26l-1-12c9.517-5.71 19.673-2.491 30 0" fill="#152130"/>
  <path d="m128.84 228.867 2.66-.003q2.788 0 5.576.006 4.27.005 8.54-.007 2.705 0 5.411.004l2.586-.006c3.376.013 6.162.064 9.387 1.139.043 2 .04 4 0 6-1 1-1 1-2.766 1.114l-2.27-.016-2.45-.01-2.577-.025-2.587-.014q-3.175-.02-6.35-.049l.035 3.43.028 4.445.025 2.262c.025 5.636.025 5.636-1.088 7.863-1.666.043-3.334.04-5 0-1-1-1-1-1.098-4.816q.01-2.374.036-4.746l.013-2.444q.02-2.997.049-5.994l-2.887.105-3.8.083-3.762.105c-3.78-.312-5.67-.842-8.551-3.293v-4c3.358-1.68 7.147-1.142 10.84-1.133M121 232l1 2c2.714.312 5.34.513 8.063.625l2.298.117c1.88.095 3.76.177 5.639.258 1.054 3.162 1.313 5.87 1.563 9.188l.253 3.292L140 250h1c.09-1.499.09-1.499.184-3.027l.254-3.91c.08-1.288.162-2.576.246-3.903C142 236 142 236 143 235c2.859-.237 5.699-.422 8.563-.562l2.443-.131q2.997-.159 5.994-.307v-2c-13.05-1.36-25.923-.716-39 0" fill="#FBEDEE"/>
  <path d="M333.875 194.438C335 196 335 196 336 198c2.527.656 2.527.656 5 1 1.823 6.154 2.236 11.596 2 18h-1l-1-11-2.379.621c-9.013 2.311-9.013 2.311-13.558 2.816-3.655.672-5.224 2.261-8.063 4.563-2.312-.25-2.312-.25-4-1l.5-1.875c.576-2.086.576-2.086.5-4.125l-2-2 10 1v-2l3-1v-3l-3 1a65 65 0 0 1-4.187.063L314 201c-.687-1.812-.687-1.812-1-4 2.667-3.422 5.553-3.921 9.648-4.715 4.15-.503 7.836-.447 11.227 2.153" fill="#8B9394"/>
  <path d="M217 281h10l-1 40h-8v-35l-2-1z" fill="#8B999D"/>
  <path d="M280 143h6l4 7h-3v-3l-2 1 .91 1.793c3.028 6.29 3.028 6.29 3.277 9.957-1.587 3.007-3.727 4.289-6.593 6.04-1.908 1.212-1.908 1.212-2.594 4.21l1.938.75C284 172 284 172 284.75 174.125L285 176h-2l-.875 1.938C281 180 281 180 279 181a140 140 0 0 1-7-2l2-1-.062-3.437C274 171 274 171 275 170a133 133 0 0 0 .938-5.125c.563-3.264 1.19-6.315 2.125-9.5 1.14-4.107 1.572-8.139 1.937-12.375" fill="#086B38"/>
  <path d="M347 414c10.742-.195 10.742-.195 14 0 2 2 2 2 2.125 5.5-.912 6.055-5.193 10.073-9.125 14.5q-1.72 2.062-3.437 4.125L348 441h-1z" fill="#F8E8E5"/>
  <path d="m361 193 .813 1.75c1.138 2.307 1.138 2.307 2.812 4.375C366 201 366 201 366 203l2.375-.562C371 202 371 202 373 203v-4l6-1 1 4-3 1 2 1.813c2 2.187 2 2.187 2 5.187-2.375.125-2.375.125-5 0l-2-2c-7.054-2.399-13.601-3.235-21-3l-3-1v2c-6.152.098-6.152.098-8 0-1-1-1-1-1.062-4.062L341 199h-5v-3l2 1c1.74.084 3.484.107 5.227.098l3.125-.01 3.273-.025 3.297-.014q4.039-.018 8.078-.049z" fill="#99A2A3"/>
  <path d="M267 329v2h8c-2.256 2.256-4.046 2.966-7 4.125l-2.687 1.07C263 337 263 337 261 337v2c-3.18 1.354-6.37 2.68-9.562 4l-2.713 1.156c-5.171 2.122-9.13 3.335-14.725 2.844-.312-2.312-.312-2.312 0-5 6.788-4.675 14.725-8.448 23-9v-2c6.625-2 6.625-2 10-2" fill="#8F9096"/>
  <path d="M206 244q9.366-.037 18.732-.055 3.18-.008 6.363-.02c3.06-.013 6.122-.018 9.182-.023l2.842-.015c5.05 0 9.96.239 14.968.888 2.665.313 5.295.321 7.976.287l2.847-.027L271 245l2 4h-68z" fill="#005027"/>
  <path d="M143 169c2 2 2 2 2 6h2l.621 2.152.816 2.786.81 2.777c.543 2.225.543 2.225 1.753 3.285q.061 3.5 0 7h2v3h-30c-1.824-4.865-3.45-9.228-4.687-14.187l-.762-2.981c-.524-2.695-.656-5.095-.551-7.832 8.583-1.573 17.261-2.899 26-2m-12 3c-1.892.222-3.789.406-5.687.563l-3.012.253L120 173c0 2.769.348 4.602 1.094 7.23l.615 2.193.791 2.764L125 194h24c-.65-8.16-.65-8.16-4-14a135 135 0 0 1-2.156-6.328c-.785-2.044-.785-2.044-3.844-2.672-3.094-.155-5.027.009-8 1" fill="#F7F8F8"/>
  <path d="m318 52 3 1-2 1c.409 2.861.9 4.84 2.438 7.313C324.156 65.988 325 70.627 325 76l-3-1v-2h-3c-2.187-1.875-2.187-1.875-4-4v-2l-3.375.063C308 67 308 67 306 66v-3l-1.937-.812C302 61 302 61 301 58h-5v-1l20-2v-2z" fill="#544738"/>
  <path d="m265 108 5 1v10c4.519 2.26 8.047 2.24 13 2l3-1v-8a88 88 0 0 1 5-1c1.88 1.88 1.124 4.499 1.133 6.992C292 120 292 120 291 123h-2l-1 3c-3.303 1.101-5.898 1.202-9.375 1.25l-3.398.078c-3.567-.363-5.372-1.205-8.227-3.328-2.358-3.2-3.709-6.02-4-10 .938-3.312.938-3.312 2-6" fill="#BD354C"/>
  <path d="m156 307 4 1v2l2.625.25c3.932.874 6.26 2.215 9.375 4.75.875 2.25.875 2.25 1 4h-2l-1 3h-2v2c-1.355 1.508-1.355 1.508-3.187 3.125l-1.793 1.633C161 330 161 330 156 330z" fill="#FBE5E3"/>
  <path d="M244 140h8c3.257 8.467 3.15 17.041 3 26l-5-2v-2l-2.25-.687c-3.334-1.592-4.763-3.221-6.75-6.313v-4h2l.5-3.812.281-2.145c.272-2.198.272-2.198.219-5.043" fill="#0B6D3A"/>
  <path d="M155 292c7.788.234 13.538.516 20 5l3.188 1.438c3.199 1.777 4.826 3.506 6.812 6.562v3h-2v3c-2.187.313-2.187.313-5 0-1.12-1.12-2.231-2.25-3.29-3.43-5.459-5.01-12.678-8.442-19.71-10.57z" fill="#F5DDDB"/>
  <path d="M155 297c8.728 1.616 16.498 5.918 23 12l1 3-1 2h-2v2c-1.812.688-1.812.688-4 1-1.437-1.25-1.437-1.25-3-3-2.954-1.97-5.499-3.352-9-4v-2l-5-1z" fill="#280A0B"/>
  <path d="M269 143h10q.079 3.313.125 6.625l.07 3.727c-.193 3.617-.946 6.272-2.195 9.648-.344 2.332-.68 4.665-1 7l-1 1a236 236 0 0 0-1 7c-2.169-.506-4-1-6-2-.41-2.225-.41-2.225-.633-5.129l-.254-3.135-.238-3.298-.262-3.311q-.32-4.062-.613-8.127l3-1zm3 3 2 1-.621 1.645-.817 2.167-.808 2.145c-1.59 4.306-1.725 7.147-1.317 11.73l.31 3.575L271 171c4.7-7.05 6.33-16.623 7-25z" fill="#F5F3EE"/>
  <path d="M205 268h3v2h3l2 3a77 77 0 0 0 7.813 2.125l2.29.52c6.615 1.435 13.127 2.12 19.897 2.355l1 3q-6.94.075-13.88.11-2.36.015-4.72.04c-2.263.025-4.527.036-6.79.045l-2.125.032c-3.67 0-6.366-.206-9.485-2.227v-2h-2c-1.366-2.732-1.128-4.982-1-8z" fill="#210605"/>
  <path d="M127.326 216.886q2.214 0 4.428.016l2.35.005c2.486.005 4.972.018 7.458.03l5.045.014q6.197.017 12.393.049l1 5h-2v2c-5.825 1.333-11.551 1.184-17.5 1.187l-3.418.038-3.3.005-2.999.013c-2.94-.257-5.115-1.013-7.783-2.243a100 100 0 0 1 0-5c1-1 1-1 4.326-1.114M125 220l1 2q5.927.075 11.853.11c2.006.015 4.012.04 6.018.066l3.809.02 3.523.031c2.936.066 2.936.066 4.797-2.227-5.214-.864-10.22-1.153-15.5-1.125l-2.184-.012c-4.538.008-8.839.395-13.316 1.137" fill="#FDF8F8"/>
  <path d="M222 176h2l1 4h2l.688 2.375c1.688 3.377 2.844 3.315 6.312 4.625a85 85 0 0 1 3.188 2.875c4.078 3.682 8.668 5.366 13.812 7.125l-1 3-6-1c0 3.589 3.31 6.08 5.566 8.71C251 210 251 210 250.715 212.29L250 214h-2v-2h-2c-1.473-2.012-1.473-2.012-3.062-4.687l-1.598-2.637c-1.31-2.617-1.783-4.83-2.34-7.676-1.997-1.685-1.997-1.685-4-3v-2l-1.687-.187c-3.25-1.143-4.929-3.37-7.313-5.813l-2.25-.875C222 184 222 184 221.188 180.438L221 177z" fill="#004F27"/>
  <path d="M314 417c2.094 3.14 2.564 5.037 3.254 8.7l.65 3.415.659 3.572c.22 1.16.442 2.32.67 3.514 1.114 5.92 2.11 11.81 2.767 17.799a312 312 0 0 1-3.418-3.46c-1.59-1.597-1.59-1.597-3.508-3.08-4.868-4.116-4.868-4.116-5.402-7.605.232-2.695.735-5.214 1.328-7.855q.386-1.987.762-3.977c.704-3.683 1.46-7.354 2.238-11.023" fill="#EADAD8"/>
  <path d="M284 147h3v3l5 1c2.601 8.292 2.601 8.292 2 12-1.687 2.313-1.687 2.313-4 4-2.75.25-2.75.25-5 0l6 7c-1.27 3.914-2.512 5.79-6 8l1-4h-3v-2h2c-1.866-3.628-1.866-3.628-5-6 .385-2.54.701-3.728 2.629-5.484l1.933-1.266 1.942-1.297L288 161c-.539-5.277-1.773-9.256-4-14" fill="#015229"/>
  <path d="M262.848 143.902 269 144l1 8-4 1 .438 1.766c1.543 6.817 1.778 13.26 1.562 20.234-5.716-3.743-5.716-3.743-6.447-6.974-.035-2.262.07-4.46.26-6.714.19-2.81.249-5.486.187-8.312l-3-2c1.035-6.949 1.035-6.949 3.848-7.098" fill="#283645"/>
  <path d="M333.875 194.125c1.691 2.819 1.82 5.645 2.125 8.875h-3l-1-3-2-1 1 6c-1.875-.312-1.875-.312-4-1l-2-3c-2.667-.365-2.667-.365-5.625-.187l-3.04.082L314 201c-.687-1.812-.687-1.812-1-4 2.46-3.51 5.65-3.94 9.648-4.715 4.077-.494 7.663-.298 11.227 1.84" fill="#E8C095"/>
  <path d="M168 362h12v2h3v2h-2v4h-2l-.687 2.188c-1.604 3.435-3.51 5.258-6.313 7.812l-1.637 1.543c-3.886 3.537-7.327 5.872-12.363 7.457-2.75-.437-2.75-.437-5-1l-3 2-3-1a166 166 0 0 0-5.687-.562l-3.012-.254L136 388v-1l2.746-.148c9.72-.597 18.031-1.29 26.625-6.047C167 380 167 380 169 380v-3h2v-2h3l1-5h2l2-7h-11z" fill="#B6B6B6"/>
  <path d="M172 177c1.824 1.398 1.824 1.398 3 3v2l3 1c3.178 3.56 5 7.201 5 12-3.253.994-6.035 1.048-9.422.879l-3.105-.147-3.223-.17-3.27-.158q-3.99-.195-7.98-.404l-.434-3.363c-.495-3.179-1.137-4.874-2.566-7.637v-4c6.233-2.822 12.14-4.13 19-3m-12 3v2h-4c.616 4.313 1.594 7.781 3 12h20l1-2-1-2h-2l-.687-2.687c-1.534-3.87-3.025-5.772-6.313-8.313-3.573-.438-6.571-.055-10 1" fill="#F4F4F5"/>
  <path d="M253 141h8c0 3.51-.375 6.565-1 10l3 2c.717 5.856-.948 10.614-3 16l-5-2zm2 3 2 4 1-4zm2 6 1 14c2.017-4.034 2.454-5.638 2-10z" fill="#E8EFEC"/>
  <path d="m401 363 2 1c.444 5.945-2.284 8.666-6 13-4.976 5.349-9.735 10.298-17 12-3.973.094-7.91-.13-11.875-.375l-3.242-.172q-3.943-.21-7.883-.453v-1h19v-2l8-1v-2c1.54-1.262 1.54-1.262 3.625-2.687 6.121-4.453 10.313-9.338 13.375-16.313" fill="#B5B4B4"/>
  <path d="m242 142 3 1c.2 3.716.152 4.772-2 8h-2c1.982 5.727 3.618 7.86 9 11l1.5 1.563c2.192 2.1 4.77 3.163 7.5 4.437l3-4v6l-4 1-1-2-2.5-.25c-6.55-1.403-13.62-6.319-17.5-11.75-.1-6.15 1.705-9.899 5-15" fill="#08542E"/>
  <path d="M115 180c1.7 5.33 2.52 10.431 3 16-3.31 1.655-6.991 1.1-10.625 1.063l-2.43-.014q-2.972-.02-5.945-.049c-2.67-4.808-4.569-8.312-4-14 6.876-2.16 12.785-3.355 20-3m-18 5v3h2l2 7c5.693 1.186 9.426.663 15-1v-2h-2l.063-3.312c.122-3.632.122-3.632-1.063-6.688-5.763-.455-10.606 1.209-16 3" fill="#F9F8F8"/>
  <path d="M246 336c-2.182 2.182-3.71 2.736-6.562 3.813-2.41.965-2.41.965-4.438 2.187-1.211 2.609-1.211 2.609-1 5l1.758-.402c4.4-.995 8.78-1.912 13.242-2.598l-2 1-.875 1.875c-1.43 2.7-2.374 3.75-5.125 5.125-3.63.125-6.821-.337-10-2.125-1.668-3.127-1.478-5.406-1-8.875 3.935-6.377 9.268-5.53 16-5" fill="#902125"/>
  <path d="M361 193c2 3.75 2 3.75 2 6h-6l-1 5c-3 1-3 1-6 0v2c-6.152.098-6.152.098-8 0-1-1-1-1-1.062-4.062L341 199h-5v-3l2 1c1.74.084 3.484.107 5.227.098l3.125-.01 3.273-.025 3.297-.014q4.039-.018 8.078-.049z" fill="#677678"/>
  <path d="m267 324 2.196.48c2.594.481 5.036.718 7.667.836l2.686.127 2.764.12 2.822.13q3.432.159 6.865.307v5h-25z" fill="#1F0808"/>
  <path d="m128.84 228.867 2.66-.003q2.788 0 5.576.006 4.27.005 8.54-.007 2.705 0 5.411.004l2.586-.006c3.376.013 6.162.064 9.387 1.139v6h-1v-5l-41-1 1 3 16 1c.941 2.824 1.073 4.142.879 7.012l-.147 2.295-.17 2.38-.158 2.417q-.196 2.947-.404 5.896h-1v-17l-10.45.293c-3.779-.312-5.67-.842-8.55-3.293v-4c3.358-1.68 7.147-1.142 10.84-1.133" fill="#F1AEB3"/>
  <path d="M364 190c9.938 1.805 9.938 1.805 13 5v2l2 1-6 1v4c-3.25.375-3.25.375-7 0-3.163-3.569-4-5.19-4-10h2z" fill="#F0C69E"/>
  <path d="M350 308v4l-2.691 1.238c-7.501 3.994-13.424 10.573-18.836 17.035-1.42 1.664-2.907 3.203-4.473 4.727.57-3.994 1.81-6.63 4-10l1.25-2.437c2.406-3.523 5.444-5.908 8.75-8.563l2.625-2.25c2.928-2.157 5.678-3.75 9.375-3.75" fill="#B6B7B7"/>
  <path d="M266 62v2l4 1v3c-4.073.776-7.863 1-12 1l-1 1q-3.5.061-7 0c0-4 0-4 1.813-6.25 4.658-2.558 8.982-2.078 14.187-1.75" fill="#2A3B37"/>
  <path d="M277 153h2a883 883 0 0 1-1 6l-.477 2.813-.523 3-.5 2.894C276 170 276 170 275 171a236 236 0 0 0-1 7c-2.169-.506-4-1-6-2v-12l3 1 1 3 .84-3.027q.548-1.956 1.098-3.91l.552-1.999c1.397-4.95 1.397-4.95 2.51-6.064" fill="#D3DDDA"/>
  <path d="m352 385 2.875.563L357 386v2l3.176-.035 4.137-.027 2.091-.026c3.144-.015 5.59.086 8.596 1.088v2c-24.975.692-24.975.692-30.75-4.605L343 385c3.545-1.182 5.371-.726 9 0" fill="#A8A7A7"/>
  <path d="M330 327c1 3 1 3 .249 4.855l-1.14 2.11c-2.592 5.504-2.771 10.587-2.859 16.598l-.09 3.056q-.105 3.69-.16 7.381h-2c-2.544-7.63-2.408-18.629.047-26.25 1.696-3.033 3.503-5.3 5.953-7.75" fill="#B7B7B7"/>
  <path d="M354 235c1.429 8.571 1.429 8.571-1 12v-3l-1.934.035-2.503.028-2.497.035C344 244 344 244 343 243c.313-3.5.313-3.5 1-7 3.215-1.607 6.436-1.057 10-1" fill="#767B80"/>
  <path d="m294.563 61.75 2.94-.078L300 62c2 3 2 3 2 7l-17-1 1-5c3.066-1.022 5.348-1.199 8.563-1.25" fill="#233532"/>
  <path d="M117 177v3h2l4 15 8 1v1h-15l2-1-3-15-8-1c2.856-2.856 6.041-3 10-3" fill="#ADB3BA"/>
  <path d="M278.875 27.625C282 28 282 28 284.375 29.813 286 32 286 32 286 35h-2v2c-6.055.195-6.055.195-8 0-2-2-2-2-2.25-4.5.375-3.747 1.46-4.397 5.125-4.875" fill="#E6C503"/>
  <path d="m335 198 6 1c1.823 6.154 2.236 11.596 2 18h-1l-1-11-2.687 1c-3.022.912-5.197 1.183-8.313 1v-9l3 1v3h3z" fill="#C8BCAF"/>
  <path d="M121.25 313.883 123 315c-4.75 3-4.75 3-7 3l-.836 1.703c-1.208 2.383-2.486 4.715-3.789 7.047l-1.352 2.422L109 331h-2l-1 6c-1.125-1.75-1.125-1.75-2-4 .875-2.25.875-2.25 2-4h2l-1-3c1.566-5.896 4.97-9.22 10-12.383 2-.617 2-.617 4.25.266" fill="#ADACAC"/>
  <path d="m156 307 4 1v2l2.625.25c3.932.874 6.26 2.215 9.375 4.75.875 2.25.875 2.25 1 4h-2l-1 3-1.875-2.375c-2.653-3.277-4.324-4.857-8.25-6.25-.724-.26-1.449-.52-2.195-.79-.555-.192-1.109-.386-1.68-.585z" fill="#B8AEAE"/>
  <path d="M142 235h1v20h-5v-18l2 1 1 3-.062-2.437C141 236 141 236 142 235" fill="#FDF9F9"/>
  <path d="M265 154c4.156 6.234 3.105 13.768 3 21-4.228-2.995-4.228-2.995-6-5-.375-3.312-.375-3.312 0-6h2l-.062-3.875c-.063-3.875-.063-3.875 1.062-6.125" fill="#172736"/>
  <path d="M187 312c1.813.125 1.813.125 4 1l3 6c2.548 1.881 2.548 1.881 5 3-3.122 1.85-5.394 2.792-9 2-2.226-2.063-3.81-4.204-5-7 .688-2.937.688-2.937 2-5" fill="#F9DBD9"/>
  <path d="m310 199 1.703.434c2.749.677 5.22.662 8.047.629l2.984-.028L325 200l1 4h-4v2l-11-1-2-5z" fill="#230D0A"/>
  <path d="m258 202 8 1c-.468 4.056-.88 7.466-3 11h-2v-3h-2z" fill="#0C272E"/>
  <path d="M115 180c1.7 5.33 2.52 10.431 3 16-2.628-1.865-3.864-3.304-4.488-6.492A133 133 0 0 1 113 182l-2.266.508-2.984.617-2.953.633c-3.031.262-4.277-.138-6.797-1.758 5.838-1.698 10.931-2.253 17-2" fill="#F3F3F4"/>
  <path d="M94 181q.69 2.03 1.375 4.063l.773 2.285c1.026 3.194 1.93 6.426 2.852 9.652h17v1H96v-4h-2a345 345 0 0 1-1.5-3.75l-.844-2.11C91 186 91 186 91 182c2-1 2-1 3-1" fill="#BCAAB1"/>
  <path d="M153 184c3.733 3.888 3 4.809 3 11h23v1h-26v-3h-2c-.125-3.375-.125-3.375 0-7z" fill="#D4BDC3"/>
  <path d="M394 321c3.884.111 5.018 1.018 7.813 3.813 3.314 4.95 2.61 10.47 2.187 16.187-1.623-2.434-2.617-4.313-3.625-7-.26-.68-.52-1.361-.79-2.062C399 330 399 330 399 327h-2z" fill="#BAB9B8"/>
  <path d="m164 381 2 1c-2.28 3.42-2.405 3.101-6 4l-2 3-2.312-.625c-2.907-.709-2.907-.709-5.688 1.625l-3-1a166 166 0 0 0-5.687-.562l-3.012-.254L136 388v-1l2.746-.148c13.278-.697 13.278-.697 25.254-5.852" fill="#C1BFBF"/>
  <path d="M186.063 317.625C188 319 188 319 188.813 321.563L189 324c-1 1-1 1-3.066 1.098l-2.496-.036-2.504-.027L179 325c0-3 0-3 1-5h2v-2c2-1 2-1 4.063-.375" fill="#360B0C"/>
  <path d="m150 191 1 2h2v3h-25l-1-2 22-1z" fill="#FAEEEF"/>
  <path d="M297 78c2 2 2 2 2.125 4.625L299 85c-3.048.931-4.42 1.298-7.312-.187C290 83 290 83 290 79c2.513-1.256 4.217-1.209 7-1" fill="#2A3A35"/>
  <path d="M246 336c-2.525 2.525-4.735 3.043-8.125 4.125l-3.32 1.07L232 342v7l-2-1c-.405-4.13-.394-6.362 1.813-9.937 4.634-3 8.815-2.486 14.187-2.063" fill="#96191F"/>
  <path d="M259.5 77.875C262 78 262 78 263 79c.125 3 .125 3 0 6-1 1-1 1-3.437 1.188C257 86 257 86 255 84c.724-5.936.724-5.936 4.5-6.125" fill="#1D312F"/>
  <path d="M253 141h8c0 4 0 4-1 6h-2l-.375 1.938L257 151l-2 1c-1.423-3.823-2.24-6.913-2-11m2 3 2 4 1-4z" fill="#F8FAF9"/>
  <path d="M279 88h4c1.765 3.088 2 4.233 2 8h-8c-.125-2.875-.125-2.875 0-6z" fill="#C03E51"/>
  <path d="M144 234a82 82 0 0 1 5.125.375l2.996.3c3.307.373 6.59.813 9.879 1.325v1h-18v16h-1a2399 2399 0 0 1-.062-8.937l-.026-2.577-.01-2.45-.016-2.27C143 235 143 235 144 234" fill="#F4BFC3"/>
  <path d="M357 199c3.313-.25 3.313-.25 7 0 1.938 1.875 1.938 1.875 3 4v2h-13l2-2c.643-2.069.643-2.069 1-4" fill="#9AA4A6"/>
  <path d="m209 290 2 1a451 451 0 0 1-3.25 3.875l-1.828 2.18c-1.905 1.928-3.5 2.807-5.922 3.945a89 89 0 0 0-2 4 90 90 0 0 1-4 4c.501-4.246 1.644-6.104 4.75-9l2.176-2.066L203 296a388 388 0 0 0 2.938-2.937c1.53-1.532 1.53-1.532 3.062-3.063" fill="#F6BFBF"/>
  <path d="m142.313 304.938 3.238.027L148 305l-1 4v-2l-2.812 1.063c-5.067 1.49-10.035.627-15.188-.063 3.663-3.663 8.367-3.117 13.313-3.062" fill="#979292"/>
  <path d="M312 205c5.478-.365 5.478-.365 7.875 1.313C321 208 321 208 321 211c-1.75 1.75-1.75 1.75-4 3-2.25-.312-2.25-.312-4-1l.5-1.875c.576-2.086.576-2.086.5-4.125z" fill="#A9ACAE"/>
  <path d="M322 342h1l1 19h2v-2h2c1.25 7.625 1.25 7.625-1 11-1.765-3.088-2-4.233-2-8h-2c-.902-2.707-1.119-4.238-1.098-7.012l.01-2.295.026-2.38.013-2.417q.02-2.947.049-5.896" fill="#8C8686"/>
  <path d="m153 387 1 2c2.025.652 2.025.652 4 1-4.801 1.385-9.539 1.184-14.5 1.188l-2.879.037-2.777.005-2.526.013c-2.516-.264-4.144-.98-6.318-2.243 5.152-.09 9.92.153 15 1v-2l2.813.625c3.339.742 3.339.742 6.187-1.625" fill="#928F8F"/>
  <path d="M168 362h12v2h3v2h-2v4h-2v2l-5 1 1-3h2l2-7h-11z" fill="#C2AAAA"/>
  <path d="m227 277 16 1 1 3h-15v-2z" fill="#15150A"/>
  <path d="m124 217 2 1-1 4 2.938-.062C131 222 131 222 132 223c1.56.157 3.125.25 4.691.316l2.862.127 3.01.12 3.021.13q3.708.16 7.416.307v1c-4.062.058-8.125.094-12.187.125-1.151.017-2.301.034-3.487.05l-3.369.02-3.094.032c-2.99-.237-5.157-.97-7.863-2.227a100 100 0 0 1 0-5z" fill="#F0A2A8"/>
  <path d="M331 320h2c.313 2.688.313 2.688 0 6-2.25 2.625-2.25 2.625-5 5l-2.312 2.313L324 335c.57-3.994 1.81-6.63 4-10l1.563-2.812z" fill="#A29F9F"/>
  <path d="m360 305 4.375.438 2.46.246C369 306 369 306 371 307v2h-10v6h-1z" fill="#C09D9F"/>
  <path d="m335 375 2 1v2h3v2l1.75.313c2.57.785 4.187 1.992 6.25 3.687-2.812.625-2.812.625-6 1l-3-2v-2l-3-1z" fill="#B6B6B6"/>
  <path d="M277 153h2a883 883 0 0 1-1 6l-.441 2.813-.497 3-.464 2.894L276 170l-2 1c-.333-6.816-.242-11.921 3-18" fill="#C7DED2"/>
  <path d="M162 231v5c-4.161.082-7.947-.018-12-1v-1h10v-2h-12v-1c5.021-.78 8.977-1.13 14 0" fill="#FDF8F9"/>
  <path d="m134.313 166.938 3.8.027L141 167c-3.445 2.01-6.701 2.598-10.625 3.188l-3.477.542C124 171 124 171 122 170v-2c4.156-1.01 8.044-1.102 12.313-1.062" fill="#A4A9B2"/>
  <path d="M107 324c1 3 1 3 1 5h-2l-.367 2.59-.508 3.348-.492 3.34L104 341l-2 1a560 560 0 0 1-.062-4.312l-.036-2.426C102 333 102 333 103 330h2l.438-2.437C106 325 106 325 107 324" fill="#AEAEAE"/>
  <path d="m382 385-1 2h-3l-1 2-20-1v-1h19v-2c3-1 3-1 6 0" fill="#C6C3C2"/>
  <path d="M151 217h8l1 5h-2v2h-7l2-1.375 2-1.625v-2z" fill="#F7D4D7"/>
  <path d="m122.75 166.875 2.422.055L127 167v1h-5v2l2 1c-.94.09-.94.09-1.898.184l-2.477.254c-.812.08-1.624.162-2.46.246-2.208.207-2.208.207-4.165 1.316.25-1.875.25-1.875 1-4 2.974-1.912 5.255-2.228 8.75-2.125" fill="#BCBDC2"/>
  <path d="m401 363 2 1c.25 2.262.25 2.262 0 5-1.75 2.02-1.75 2.02-4 3.813l-2.25 1.832L395 376l-2-1 1.242-1.61 1.633-2.14 1.617-2.11c1.4-1.987 2.487-3.938 3.508-6.14" fill="#BEBDBC"/>
  <path d="M349.188 384.375 352 385l1 3c-3.384 1.064-4.58 1.214-7.812-.437L343 386c3-2 3-2 6.188-1.625" fill="#A19F9E"/>
  <path d="m232 341 3 1-1 5 9-1-1 2h-7l-1 2-2-1c-.687-3.5-.687-3.5-1-7z" fill="#892D30"/>
  <path d="M404 331c3.544 5.316 4.282 9.483 4.125 15.813l-.027 2.1c-.024 1.695-.06 3.391-.098 5.087h-1l-.367-3.43-.508-4.445-.238-2.262c-.395-4.389-.395-4.389-2.887-7.863.375-2.625.375-2.625 1-5" fill="#908B8B"/>
  <path d="m118 190 1 2h2l2 3c1.964.577 1.964.577 4.125.688L131 196v1h-15l2-1z" fill="#C0A2AA"/>
  <path d="m116 377 9 6-1 3c-3.315-.986-4.75-1.654-6.812-4.5C116 379 116 379 116 377" fill="#B9B8B8"/>
  <path d="M330 327c1.214 3.642.667 4.332-.937 7.688l-1.153 2.449L327 339l-2-2c.238-4.396 2.141-6.773 5-10" fill="#C1BFBF"/>
  <path d="M271 153v12l-2 1c-1.585-3.17-1.424-6.547-1-10 1.5-2 1.5-2 3-3" fill="#F6F7F7"/>
  <path d="M343 222h1q.04 3.844.063 7.688l.025 2.185c.017 3.843-.153 7.393-1.088 11.127h-2c-.043-2-.04-4 0-6l1-1c.235-2.35.414-4.706.563-7.062l.253-3.91z" fill="#A6ABAD"/>
  <path d="M330 199c3 1 3 1 4.688 4.063L336 206l-3 2-3-1z" fill="#ACA395"/>
  <path d="m380 199-1 4h-5l-1-4c3.133-1.044 3.99-.934 7 0" fill="#442A25"/>
  <path d="M115 181h1c1.263 5.075 2.27 9.728 2 15-2.062-1.312-2.062-1.312-4-4-.059-3.727.417-7.324 1-11" fill="#ECEDEF"/>
  <path d="M270 147h1c.688 2.813.688 2.813 1 6a102 102 0 0 1-3 3c-.73 3.61-.73 3.61-1 7h-1l-1-10 3-1z" fill="#A8AEB4"/>
  <path d="m324 335 2 2c-.023 2.82-.023 2.82-.375 6.125l-.336 3.32L325 349c-2-2-2-2-2.23-4.059l.043-2.378.019-2.372C323 338 323 338 324 335" fill="#ABACAC"/>
  <path d="M365 305c5.22-.18 9.073.03 14 2-3.228 2.152-4.284 2.2-8 2v-2l-6-1z" fill="#989595"/>
  <path d="m325 200 1 4h-4v2l-4-1h3v-2l-6-1v-1c6.625-1 6.625-1 10-1" fill="#432924"/>
  <path d="M130 169c2.125-.054 4.25-.093 6.375-.125l3.586-.07C143 169 143 169 145 171c-.375 2.125-.375 2.125-1 4-1.5-1.375-1.5-1.375-3-3v-2h-11z" fill="#EEEFF0"/>
  <path d="m258 147 .813 1.875c1.143 2.425 1.143 2.425 4.187 4.125.188 3.625.188 3.625 0 7h-2c-1.583-4.326-2.451-8.429-3-13" fill="#DDDFE1"/>
  <path d="M394 321c2.313.188 2.313.188 5 1 1.813 2.563 1.813 2.563 3 5h-5z" fill="#B4B3B2"/>
  <path d="M147 307v2l2 1h-13c6.25-3.125 6.25-3.125 11-3" fill="#D2CAC9"/>
  <path d="M328 362c2.645 3.125 3.844 6.088 5 10l-5-1z" fill="#C1BFBE"/>
  <path d="m327 295 2 1-8 8-2-1c4.625-5.75 4.625-5.75 8-8" fill="#DF323C"/>
  <path d="M361 193c2 3.75 2 3.75 2 6h-6l-1 4-1-6h6z" fill="#6F8C7E"/>
  <path d="m117 177 1 4c-3.742 0-7.29-.513-11-1 2.856-2.856 6.041-3 10-3" fill="#A3A9B1"/>
  <path d="M405 354h2a212 212 0 0 1-.312 4.313l-.176 2.425c-.594 2.625-1.47 3.57-3.512 5.262l-1-3 2-2c.4-2.323.74-4.657 1-7" fill="#A6A6A6"/>
  <path d="M371 198h5l-3 1v4h-7l2-1 1-3 2 1z" fill="#D2B192"/>
  <path d="M253 141h8v4l-2 2-1-4-5-1z" fill="#F5E7DA"/>
  <path d="m382 384 2 1 1-1h2l-1 3c-2.066.73-2.066.73-4.562 1.188l-2.504.48L377 389l1-3 3 1z" fill="#A09E9E"/>
  <path d="m135 308 1 2c-6.286 2.429-6.286 2.429-10 1 2.61-3.48 4.831-3.278 9-3" fill="#B7B8B8"/>
  <path d="M110 326c0 3 0 3-1 5h-2l-1 6c-1.125-1.75-1.125-1.75-2-4 1.052-3.473 3.041-5.027 6-7" fill="#C8C4C4"/>
  <path d="M350 308v4l-2.75-.125c-3.128.12-4.636.516-7.25 2.125 2.474-3.906 5.237-6 10-6" fill="#988B8C"/>
  <path d="m156 307 4 1v2l6 1c-3.694 1.231-6.206.644-10 0z" fill="#A0999A"/>
  <path d="m200 299 1 2-6 8-1-4c1.215-1.703 1.215-1.703 2.938-3.25l1.714-1.578z" fill="#F4B6B6"/>
  <path d="M337 199h4v6h-3z" fill="#8D9CA0"/>
  <path d="m115 171 2 1c.594 2.649.742 5.292 1 8l-1-3-3 1c-.043-2-.04-4 0-6z" fill="#AFB3BA"/>
  <path d="m125 384 4 2v3l-5-1z" fill="#9E9B9B"/>
  <path d="M177 372c0 3.52-.704 4.439-3 7h-2v-4h2v-2z" fill="#A09E9E"/>
  <path d="m337 317 3 1c-4.75 4.875-4.75 4.875-7 6v-4c1.813-1.812 1.813-1.812 4-3" fill="#B9B9B9"/>
  <path d="m330 300 2 1a517 517 0 0 1-3.375 3.5l-1.898 1.969C325 308 325 308 323 308c1.491-3.795 3.757-5.61 7-8" fill="#F5BBBB"/>
  <path d="m331 276 1 2a105 105 0 0 1-4 5h-2v2h-2l1-3h2l.875-1.875C329 278 329 278 331 276" fill="#F3B1B2"/>
  <path d="M114 177v1c-5.574 1.663-9.307 2.186-15 1v-1c5.05-1.036 9.874-1.103 15-1" fill="#C3C0C4"/>
  <path d="m328 325 1 2c-2.484 6.742-2.484 6.742-5 8 .565-3.958 1.809-6.666 4-10" fill="#7A7171"/>
  <path d="m187 312 4 1c-1 2-1 2-3 4l-1 2-2-4z" fill="#F0BDBD"/>
  <path d="m365 306 6 1v2h-9l3-1z" fill="#BBB"/>
  <path d="m183 190 3 1 1 5h-6l2-1z" fill="#BBACB3"/>
  <path d="m161 176-1 3-10-1v-1q2.184-.543 4.375-1.062l2.46-.598C159 175 159 175 161 176" fill="#BEBDC2"/>
  <path d="M279 88h4l1 4h-2v-2l-5 4c.875-4.875.875-4.875 2-6" fill="#CA575E"/>
  <path d="M168 383c-2.53 3.092-5.225 3.91-9 5 2.184-4.836 3.794-5.137 9-5" fill="#A4A4A4"/>
  <path d="M322 273c0 3 0 3-2.375 5.688C317 281 317 281 315 281c1.38-4.142 3.598-5.322 7-8" fill="#DF2D38"/>
  <path d="M153 190h2l2 6h-4a88 88 0 0 1-1-5z" fill="#AAA7AF"/>
  <path d="M119 183h1l2 11-1-2h-2c-1.108-3.325-.845-5.622 0-9" fill="#B4B9BF"/>
  <path d="M107 324c1 3 1 3 1 5h-2l-2 4-1-3h2l.438-2.437C106 325 106 325 107 324" fill="#8E8989"/>
  <path d="M340 314v3c-2.375 1.75-2.375 1.75-5 3l-2-1c4.75-5 4.75-5 7-5" fill="#918D8D"/>
  <path d="m301 60 5 3-1 2-2-1-1 4c-2.125-4.625-2.125-4.625-1-8" fill="#C3A17F"/>
</svg>
